<?xml version="1.0" encoding="utf-8"?>
<!-- Generator: Adobe Illustrator 22.0.1, SVG Export Plug-In . SVG Version: 6.00 Build 0)  -->
<svg version="1.1" id="Layer_1" xmlns="http://www.w3.org/2000/svg" xmlns:xlink="http://www.w3.org/1999/xlink" x="0px" y="0px"
	 viewBox="0 0 175 36" style="enable-background:new 0 0 175 36;" xml:space="preserve">
<style type="text/css">
	.st0{display:none;fill:#26469D;}
	.st1{fill:#F9F9FA;}
</style>
<rect x="-62.5" y="-15" class="st0" width="300" height="60"/>
<g>
	<path class="st1" d="M17.2,22.7h2.3l-1.1-3.4h-7.2l-1.1,3.4h2.5v4.2H3.8v-4.2h1.7l6.4-19.2h6.2l6.2,19.2h1.7v4.2h-8.9V22.7z
		 M12.5,15.4h4.7l-2.4-7.6L12.5,15.4z"/>
	<path class="st1" d="M27.3,2.9h7.2v19.8H37v4.2h-9.7v-4.2h2.5V7.1h-2.5V2.9z"/>
	<path class="st1" d="M40.3,10.9h7v0.2c0.5-0.2,1-0.4,1.5-0.5c0.5-0.1,1-0.2,1.6-0.2c1.2,0,2.3,0.2,3.3,0.7c1,0.4,1.9,1,2.6,1.8
		c0.7,0.8,1.3,1.7,1.7,2.7c0.4,1,0.6,2.1,0.6,3.2c0,1.2-0.2,2.2-0.6,3.3c-0.4,1-1,1.9-1.7,2.7s-1.6,1.4-2.6,1.8
		c-1,0.4-2.1,0.7-3.3,0.7c-0.7,0-1.3-0.1-1.9-0.2s-1.2-0.3-1.7-0.5V30h3.1v4.2H39.4V30H42V15.1h-1.7V10.9z M50.1,14.7
		c-0.6,0-1.3,0.2-1.8,0.5c-0.6,0.3-1,0.8-1.4,1.4v4.5c0.3,0.5,0.8,1,1.3,1.3c0.6,0.3,1.2,0.5,1.9,0.5c0.5,0,1-0.1,1.5-0.3
		c0.5-0.2,0.9-0.5,1.2-0.8c0.4-0.4,0.6-0.8,0.8-1.3c0.2-0.5,0.3-1,0.3-1.6c0-0.6-0.1-1.2-0.3-1.7c-0.2-0.5-0.5-1-0.8-1.3
		c-0.4-0.4-0.8-0.6-1.2-0.8C51.1,14.8,50.6,14.7,50.1,14.7z"/>
	<path class="st1" d="M60.5,2.9h7.2v9.5c0.6-0.6,1.3-1,2-1.3s1.5-0.5,2.4-0.5c1.9,0,3.4,0.5,4.4,1.6c1,1.1,1.5,2.7,1.5,4.7v5.7h2.3
		v4.2h-7.2V18c0-0.9-0.2-1.6-0.7-2.1c-0.4-0.5-1-0.8-1.7-0.8c-0.5,0-1,0.1-1.5,0.4c-0.5,0.3-1.1,0.6-1.7,1.1v6h2.3v4.2h-9.6v-4.2H63
		V7.1h-2.5V2.9z"/>
	<path class="st1" d="M92.1,26.1c-0.4,0.2-0.7,0.4-1,0.6c-0.3,0.2-0.6,0.3-0.9,0.4c-0.3,0.1-0.6,0.2-0.9,0.2c-0.3,0-0.7,0.1-1.1,0.1
		c-1,0-1.8-0.1-2.6-0.4c-0.8-0.3-1.4-0.6-1.9-1.1c-0.5-0.5-0.9-1-1.2-1.6c-0.3-0.6-0.4-1.3-0.4-2c0-0.7,0.1-1.4,0.4-2.1
		c0.3-0.6,0.7-1.2,1.2-1.6c0.5-0.4,1.2-0.8,2-1.1c0.8-0.3,1.7-0.4,2.7-0.4c0.7,0,1.4,0,2,0.1c0.6,0.1,1.2,0.2,1.7,0.3V17
		c0-0.4-0.1-0.7-0.2-1c-0.2-0.3-0.4-0.5-0.6-0.7c-0.3-0.2-0.6-0.3-1-0.4s-0.8-0.1-1.3-0.1c-1,0-1.8,0.1-2.6,0.3
		c-0.7,0.2-1.4,0.5-2.1,0.8l-1.5-3c1.1-0.7,2.2-1.3,3.3-1.7c1.1-0.4,2.4-0.6,3.7-0.6c1,0,1.9,0.1,2.8,0.3c0.9,0.2,1.6,0.6,2.2,1.1
		c0.6,0.5,1.1,1.2,1.4,2c0.3,0.8,0.5,1.8,0.5,2.9v5.8h2.1v4.2h-6.7V26.1z M88.6,23.7c0.7,0,1.4-0.1,2-0.4s1.1-0.5,1.5-0.9v-2h-3.7
		c-0.2,0-0.5,0-0.7,0.1c-0.2,0.1-0.4,0.2-0.6,0.3c-0.2,0.1-0.3,0.3-0.4,0.5c-0.1,0.2-0.2,0.4-0.2,0.7c0,0.5,0.2,0.9,0.5,1.2
		C87.4,23.5,87.9,23.7,88.6,23.7z"/>
	<path class="st1" d="M112,15.1c-0.2-0.2-0.4-0.4-0.7-0.6s-0.7-0.3-1.1-0.4s-1-0.2-1.5-0.2c-0.2,0-0.4,0-0.7,0.1
		c-0.2,0-0.5,0.1-0.7,0.2s-0.4,0.2-0.5,0.4s-0.2,0.4-0.2,0.6c0,0.1,0,0.2,0.1,0.4c0,0.1,0.1,0.2,0.2,0.3c0.1,0.1,0.2,0.2,0.4,0.3
		c0.2,0.1,0.4,0.2,0.7,0.2l2.9,0.6c1.1,0.2,1.9,0.5,2.6,0.8c0.7,0.3,1.3,0.7,1.7,1.1c0.4,0.4,0.7,0.9,0.9,1.4
		c0.2,0.5,0.3,1.1,0.3,1.6c0,0.9-0.2,1.7-0.6,2.4c-0.4,0.7-1,1.3-1.7,1.7c-0.7,0.5-1.5,0.8-2.3,1c-0.9,0.2-1.7,0.3-2.6,0.3
		c-0.6,0-1.1,0-1.6-0.1c-0.5-0.1-0.9-0.2-1.3-0.3c-0.4-0.1-0.7-0.3-1-0.4c-0.3-0.2-0.6-0.4-0.8-0.6h-2.8v-4.3h4.4v0.1
		c0,0.3,0.1,0.6,0.3,0.8c0.2,0.2,0.4,0.4,0.7,0.6c0.3,0.2,0.6,0.3,1,0.3s0.7,0.1,1.1,0.1c0.9,0,1.6-0.1,2-0.4
		c0.4-0.2,0.6-0.6,0.6-0.9c0-0.3-0.1-0.6-0.3-0.8c-0.2-0.2-0.6-0.4-1.1-0.5l-3-0.6c-1.9-0.4-3.3-1-4.2-1.8c-0.9-0.8-1.4-1.9-1.4-3.2
		c0-0.8,0.2-1.5,0.5-2.1s0.9-1.2,1.5-1.6c0.6-0.4,1.3-0.8,2.2-1c0.8-0.2,1.7-0.4,2.7-0.4c0.6,0,1.2,0,1.7,0.1c0.5,0.1,1,0.2,1.4,0.3
		c0.4,0.1,0.8,0.3,1.1,0.4c0.3,0.2,0.6,0.3,0.8,0.5h2.7v4.3h-4C112.3,15.6,112.2,15.3,112,15.1z"/>
	<path class="st1" d="M125.1,10.9h3.2V15h-3.2l0,6.8c0,0.4,0,0.7,0.1,1c0.1,0.2,0.2,0.4,0.3,0.6c0.1,0.1,0.3,0.2,0.4,0.3
		c0.2,0.1,0.4,0.1,0.6,0.1c0.4,0,0.7,0,1-0.1c0.3-0.1,0.6-0.2,0.9-0.3l0.7,3c-0.5,0.3-1.1,0.6-1.8,0.8s-1.4,0.3-2.3,0.3
		c-0.6,0-1.2-0.1-1.8-0.3c-0.6-0.2-1.1-0.5-1.5-1c-0.4-0.4-0.8-1-1-1.6c-0.3-0.7-0.4-1.4-0.4-2.3l0-7.1H118v-4.1h2.3l0-3.8l4.8-2.3
		L125.1,10.9z"/>
	<path class="st1" d="M141.4,10.9h7.6v11.8h1.9v4.2h-6.8v-1.4c-0.5,0.5-1.2,0.9-1.9,1.1c-0.7,0.3-1.6,0.4-2.5,0.4
		c-0.9,0-1.7-0.1-2.5-0.4c-0.8-0.3-1.5-0.7-2-1.3c-0.6-0.6-1-1.3-1.4-2.1s-0.5-1.8-0.5-3v-5.2h-2.1v-4.2h7.1v9.4
		c0,1.1,0.3,1.9,0.8,2.4c0.5,0.5,1.3,0.8,2.1,0.8c0.6,0,1.2-0.2,1.7-0.6c0.5-0.4,0.9-0.9,1.1-1.5v-6.3h-2.6V10.9z"/>
	<path class="st1" d="M162.7,2.9h7v19.8h3.1v4.2H165v-0.6c-0.6,0.3-1.1,0.5-1.7,0.7c-0.6,0.2-1.2,0.2-1.8,0.2
		c-1.2,0-2.4-0.2-3.4-0.7c-1-0.4-1.9-1-2.6-1.8c-0.7-0.8-1.3-1.7-1.7-2.7s-0.6-2.1-0.6-3.3c0-1.2,0.2-2.3,0.6-3.3s1-1.9,1.7-2.7
		c0.7-0.8,1.6-1.3,2.6-1.8c1-0.4,2.1-0.6,3.3-0.6c0.7,0,1.3,0.1,1.9,0.2c0.6,0.1,1.1,0.3,1.7,0.5V7.1h-2.2V2.9z M161.8,23
		c0.7,0,1.3-0.2,1.8-0.5c0.6-0.3,1-0.8,1.4-1.3v-4.7c-0.4-0.5-0.8-1-1.4-1.3c-0.6-0.3-1.2-0.5-1.8-0.4c-0.5,0-1,0.1-1.5,0.3
		c-0.5,0.2-0.9,0.5-1.2,0.8s-0.6,0.8-0.8,1.3c-0.2,0.5-0.3,1.1-0.3,1.7c0,0.6,0.1,1.2,0.3,1.7c0.2,0.5,0.5,0.9,0.8,1.3
		s0.8,0.6,1.2,0.8S161.2,22.9,161.8,23z"/>
</g>
<g>
</g>
<g>
</g>
<g>
</g>
<g>
</g>
<g>
</g>
<g>
</g>
</svg>
