<?xml version="1.0" encoding="utf-8"?>
<!-- Generator: Adobe Illustrator 20.0.0, SVG Export Plug-In . SVG Version: 6.00 Build 0)  -->
<svg version="1.1" id="Layer_3" xmlns="http://www.w3.org/2000/svg" xmlns:xlink="http://www.w3.org/1999/xlink" x="0px" y="0px"
	 viewBox="0 0 294 283.5" style="enable-background:new 0 0 294 283.5;" xml:space="preserve">
<style type="text/css">
	.st0{fill:#FFFFFF;}
</style>
<path class="st0" d="M157.3,36.7c-45.8,3.4-69.3,50.3-59,85.1c12.1,40.7,48.4,56.7,59.2,86c-2.1-31-33.1-48.1-41.9-89.8
	C108.6,84.5,115.7,50.8,157.3,36.7z"/>
<path class="st0" d="M135.9,39c-46.2,9.3-76.7,58.4-57.7,107.6c21.7,56.1,67.7,54.9,90.4,96.5c-5.5-37.4-54.2-60.9-70.9-101.3
	C78.6,96,96,54.8,135.9,39z"/>
<path class="st0" d="M79.6,79c-17.3,31-12.4,56.8-8.2,70.5c19.8,64.5,93.1,59.8,98.1,122.2c-10-55.1-105.5-50.3-113.4-121.9
	C53.6,126.9,58.8,97.4,79.6,79z"/>
<path class="st0" d="M206.5,81.8c-1.2-4.3,4.7-2.1-2.8-20c-2.9-6.9-6.3-11.8-10.4-18.6c-3.8-11,2.4-24.7,0.4-32
	c-2.8,7.1-10,9.9-10.8,13.2c1.2-7.4,1.7-11.6,0.6-16.2C182,18,162.3,26.5,164,38.6c-4.9,1.4-10.6,3.4-17.1,6.3
	c-34.5,15.4-41.1,69.7-7.1,104.4c-25-44.4-12.3-74.4,13.8-82.6c-15.8,5.3-36.5,43.6,6.8,60.4c19.4,20.7,23.9,33.1,23.9,33.1
	s-1,7.7,5,8.3c4.1,4.9,10.9,15.1,17,9.6c10.2-9.2,20.6-6.6,20.6-18.3C226.8,148.2,207.7,86.2,206.5,81.8z M194,86.8
	c-1.4,0.3-9.9,3.3-13.2-5.8c0,0,13.3-7.8,12.9,4C193.7,85.1,195,86.6,194,86.8z"/>
</svg>
